<?xml version="1.0" encoding="utf-8"?>
<!-- Taken from https://anrabhartaglas.ie -->
<!-- Generator: Adobe Illustrator 24.0.1, SVG Export Plug-In . SVG Version: 6.00 Build 0)  -->
<svg version="1.1" xmlns="http://www.w3.org/2000/svg" xmlns:xlink="http://www.w3.org/1999/xlink" x="0px" y="0px"
	 viewBox="0 0 396.7 68.7" style="enable-background:new 0 0 396.7 68.7;" xml:space="preserve">
<style type="text/css">
	.st0{fill:#2E6A76;}
	.st1{fill:url(#SVGID_1_);}
	.st2{fill:url(#SVGID_2_);}
	.st3{fill:url(#SVGID_3_);}
	.st4{fill:url(#SVGID_4_);}
	.st5{fill:#282828;}
	.st6{fill:url(#SVGID_5_);}
	.st7{fill:url(#SVGID_6_);}
	.st8{fill:url(#SVGID_7_);}
	.st9{fill:url(#SVGID_8_);}
	.st10{fill:#F0EFEF;}
	.st11{fill:url(#SVGID_9_);}
	.st12{fill:url(#SVGID_10_);}
	.st13{fill:url(#SVGID_11_);}
	.st14{fill:url(#SVGID_12_);}
	.st15{fill:url(#SVGID_13_);}
	.st16{fill:url(#SVGID_14_);}
	.st17{fill:url(#SVGID_15_);}
	.st18{fill:url(#SVGID_16_);}
	.st19{fill:#68B2A0;}
	.st20{fill:url(#SVGID_17_);}
	.st21{fill:url(#SVGID_18_);}
	.st22{fill:url(#SVGID_19_);}
	.st23{fill:url(#SVGID_20_);}
	.st24{fill:#2A2B2B;}
	.st25{fill:#767676;}
	.st26{fill:url(#SVGID_21_);}
	.st27{fill:url(#SVGID_22_);}
	.st28{fill:url(#SVGID_23_);}
	.st29{fill:url(#SVGID_24_);}
	.st30{fill:#E2E2E2;}
	.st31{fill:url(#SVGID_25_);}
	.st32{fill:url(#SVGID_26_);}
	.st33{fill:url(#SVGID_27_);}
	.st34{fill:url(#SVGID_28_);}
	.st35{fill:url(#SVGID_29_);}
	.st36{fill:url(#SVGID_30_);}
	.st37{fill:url(#SVGID_31_);}
	.st38{fill:url(#SVGID_32_);}
	.st39{fill:url(#SVGID_33_);}
	.st40{fill:url(#SVGID_34_);}
	.st41{fill:url(#SVGID_35_);}
	.st42{fill:url(#SVGID_36_);}
	.st43{fill:url(#SVGID_37_);}
	.st44{fill:url(#SVGID_38_);}
	.st45{fill:url(#SVGID_39_);}
	.st46{fill:url(#SVGID_40_);}
	.st47{fill:url(#SVGID_41_);}
	.st48{fill:url(#SVGID_42_);}
	.st49{fill:url(#SVGID_43_);}
	.st50{fill:url(#SVGID_44_);}
	.st51{fill:url(#SVGID_45_);}
	.st52{fill:url(#SVGID_46_);}
	.st53{fill:url(#SVGID_47_);}
	.st54{fill:url(#SVGID_48_);}
</style>
<g id="Layer_1">
	<g>
		<path class="st0" d="M41.9,47c-0.1-0.2-0.2-0.4-0.2-0.6s0-0.3,0-0.3L49,22c0.2-0.7,0.6-1.1,1.3-1.1h4.9c0.6,0,1,0.4,1.3,1.1
			l7.3,24c0,0.1,0,0.2,0,0.3c0,0.2-0.1,0.4-0.2,0.5c-0.1,0.2-0.3,0.2-0.5,0.2H59c-0.5,0-0.9-0.3-1.1-0.8L56.3,41
			c-0.8,0.4-1.5,0.6-2.3,0.9c-0.8,0.2-1.5,0.4-2.2,0.5c-0.7,0.1-1.4,0.2-2,0.2c-0.6,0-1.2,0.1-1.6,0.1c-0.3,0-0.5,0-0.7,0
			c-0.2,0-0.4,0-0.5,0c0.4,0.1,0.7,0.3,0.9,0.8c0.2,0.4,0.3,0.9,0.1,1.5l-0.4,1.4c-0.2,0.6-0.5,0.8-1.1,0.8h-4.1
			C42.2,47.2,42.1,47.1,41.9,47z M49.9,37.3c0.6,0,1.2-0.1,1.8-0.3c0.5-0.1,1.1-0.2,1.7-0.4c0.6-0.2,1.2-0.5,1.7-0.8l-2.4-8.3
			L49.9,37.3z"/>
		<path class="st0" d="M66.9,46.1v-22c0-0.9,0.3-1.6,0.8-2.3s1.2-1,1.9-1h1c0.3,0,0.5,0.1,0.8,0.2c0.3,0.1,0.6,0.4,1,1
			c1.2,2.3,2.3,4.4,3.3,6.3c0.6,1.1,1.1,2,1.4,2.7c0.3,0.7,0.7,1.3,1,1.8c0.3,0.6,0.6,1,0.8,1.5c0.2,0.4,0.3,0.6,0.4,0.7
			c0,0.1,0.1,0.1,0.2,0.1c0.1,0,0.2-0.1,0.2-0.2V24.1c0-0.5,0.1-1,0.2-1.4c0.2-0.4,0.4-0.7,0.6-1c0.3-0.3,0.5-0.5,0.9-0.7
			c0.3-0.2,0.7-0.2,1-0.2h2c0.2,0,0.4,0.1,0.5,0.3c0.1,0.2,0.2,0.4,0.2,0.7v24.3c0,0.3-0.1,0.5-0.2,0.7c-0.1,0.2-0.3,0.3-0.5,0.3
			h-3.5c-0.5,0-0.9-0.2-1.1-0.7c-1.3-2.3-2.4-4.4-3.4-6.2c-0.6-1.1-1.1-2-1.5-2.7c-0.4-0.7-0.7-1.3-1-1.8c-0.3-0.6-0.6-1-0.8-1.4
			c-0.2-0.4-0.3-0.6-0.4-0.7c-0.1-0.1-0.1-0.1-0.2-0.1c-0.1,0-0.2,0.1-0.2,0.2v12.5c0,0.3-0.1,0.5-0.2,0.7c-0.1,0.2-0.3,0.2-0.6,0.2
			h-4c-0.2,0-0.4-0.1-0.5-0.3S66.9,46.4,66.9,46.1z"/>
		<path class="st0" d="M115.4,47.1H111c-0.6,0-1-0.3-1.3-1l-3.2-7.5c-0.2-0.4-0.5-0.6-0.8-0.6h-4.1c0.5,0,0.9,0.2,1.2,0.7
			c0.3,0.4,0.5,0.9,0.5,1.3v6.2c0,0.3-0.1,0.5-0.2,0.6c-0.1,0.2-0.3,0.3-0.6,0.3h-4.3c-0.2,0-0.4-0.1-0.5-0.3s-0.2-0.4-0.2-0.6V24.1
			c0-0.9,0.3-1.7,0.8-2.3c0.5-0.6,1.2-0.9,1.9-0.9h6.7c1.2,0,2.3,0.2,3.3,0.5c1.1,0.3,2,0.8,2.8,1.5c0.8,0.7,1.5,1.6,1.9,2.7
			c0.5,1.1,0.7,2.4,0.7,4c0,1.5-0.3,2.9-0.8,4.1s-1.4,2.2-2.5,2.9c-0.2,0.1-0.3,0.3-0.3,0.5c0,0.2,0,0.3,0.1,0.4l4,8.6
			c0.1,0.2,0.1,0.3,0.1,0.4c0,0.2-0.1,0.4-0.2,0.5C115.7,47,115.5,47.1,115.4,47.1z M109.5,29.4c0-1-0.3-1.8-0.8-2.4
			c-0.5-0.5-1.2-0.8-2-0.8h-5.4c0.5,0,0.9,0.2,1.3,0.6c0.3,0.4,0.5,0.9,0.5,1.4v3.1c0,0.3,0.1,0.6,0.3,0.8c0.2,0.2,0.4,0.3,0.7,0.3
			h2.7c0.8,0,1.5-0.2,2-0.7C109.2,31.2,109.5,30.5,109.5,29.4z"/>
		<path class="st0" d="M118.1,47c-0.1-0.2-0.2-0.4-0.2-0.6s0-0.3,0-0.3l7.3-24c0.2-0.7,0.6-1.1,1.3-1.1h4.9c0.6,0,1,0.4,1.3,1.1
			l7.3,24c0,0.1,0,0.2,0,0.3c0,0.2-0.1,0.4-0.2,0.5c-0.1,0.2-0.3,0.2-0.5,0.2h-4.1c-0.5,0-0.9-0.3-1.1-0.8l-1.6-5.3
			c-0.8,0.4-1.5,0.6-2.3,0.9c-0.8,0.2-1.5,0.4-2.2,0.5c-0.7,0.1-1.4,0.2-2,0.2c-0.6,0-1.2,0.1-1.6,0.1c-0.3,0-0.5,0-0.7,0
			s-0.4,0-0.5,0c0.4,0.1,0.7,0.3,0.9,0.8c0.2,0.4,0.3,0.9,0.1,1.5l-0.4,1.4c-0.2,0.6-0.5,0.8-1.1,0.8h-4.1
			C118.4,47.2,118.2,47.1,118.1,47z M126.1,37.3c0.6,0,1.2-0.1,1.8-0.3c0.5-0.1,1.1-0.2,1.7-0.4s1.2-0.5,1.7-0.8l-2.4-8.3
			L126.1,37.3z"/>
		<path class="st0" d="M143,46.1v-22c0-0.6,0.1-1.1,0.3-1.5s0.4-0.7,0.7-1c0.3-0.3,0.6-0.5,0.9-0.6c0.3-0.1,0.6-0.2,0.9-0.2h7.7
			c1.1,0,2.1,0.1,3,0.4c0.9,0.2,1.8,0.6,2.5,1.2c0.7,0.6,1.3,1.4,1.7,2.3c0.4,1,0.6,2.2,0.6,3.6c0,1.1-0.2,2.1-0.7,2.9
			c-0.5,0.9-1.1,1.6-1.9,2.1c0.9,0.5,1.7,1.2,2.2,2.3c0.5,1.1,0.8,2.2,0.8,3.4c0,1.5-0.2,2.7-0.6,3.7c-0.4,1-1,1.8-1.7,2.5
			c-0.7,0.6-1.6,1.1-2.6,1.4c-1,0.3-2,0.4-3.1,0.4h-9.9c-0.2,0-0.4-0.1-0.5-0.3S143,46.4,143,46.1z M152.8,31.2
			c0.7,0,1.3-0.2,1.7-0.7c0.4-0.5,0.7-1.1,0.7-2c0-0.9-0.2-1.5-0.7-2c-0.5-0.4-1-0.7-1.7-0.7h-5.7c0.5,0,0.9,0.2,1.2,0.6
			c0.3,0.4,0.5,0.9,0.5,1.4v2.3c0,0.2,0.1,0.5,0.3,0.7c0.2,0.3,0.4,0.4,0.7,0.4H152.8z M153.1,42c0.8,0,1.4-0.3,1.8-0.8
			c0.5-0.5,0.7-1.2,0.7-2.1c0-0.9-0.2-1.6-0.7-2.2c-0.5-0.5-1.1-0.8-1.8-0.8h-5.9c0.5,0,0.9,0.2,1.2,0.6c0.3,0.4,0.5,0.9,0.5,1.4
			v2.8c0,0.3,0.1,0.5,0.2,0.8c0.2,0.3,0.4,0.4,0.7,0.4H153.1z"/>
		<path class="st0" d="M165.9,46.2v-22c0-0.9,0.3-1.7,0.8-2.3c0.5-0.6,1.2-0.9,1.9-0.9h2.3c0.5,0,0.8,0.3,0.8,1v8.7
			c0,0.4,0.1,0.7,0.4,0.9s0.5,0.2,0.6,0.2c1.3,0,2.4-0.1,3.3-0.4c0.9-0.2,1.7-0.5,2.5-1c0.2-0.1,0.3-0.2,0.4-0.4
			c0.1-0.2,0.2-0.4,0.2-0.7v-5.2c0-0.5,0.1-1,0.2-1.4s0.4-0.7,0.6-1c0.3-0.3,0.6-0.5,0.9-0.7c0.3-0.2,0.7-0.2,1-0.2h2.3
			c0.5,0,0.8,0.3,0.8,1v24.3c0,0.3-0.1,0.5-0.2,0.7s-0.3,0.2-0.6,0.2H180c-0.2,0-0.4-0.1-0.6-0.3c-0.2-0.2-0.3-0.4-0.3-0.7v-8.9
			c0-0.4-0.1-0.7-0.3-0.8s-0.4-0.3-0.6-0.3c-0.1,0-0.2,0-0.3,0.1c-1,0.4-2.1,0.6-3.1,0.7c-1,0.1-2,0.2-2.7,0.2c-0.4,0-0.8,0-1.1,0
			s-0.5,0-0.7,0c0.4,0.1,0.8,0.3,1.1,0.7s0.4,0.8,0.4,1.3v7.2c0,0.3-0.1,0.5-0.2,0.7s-0.3,0.2-0.6,0.2h-4.3c-0.2,0-0.4-0.1-0.6-0.3
			C166,46.7,165.9,46.5,165.9,46.2z"/>
		<path class="st0" d="M188.3,47c-0.1-0.2-0.2-0.4-0.2-0.6s0-0.3,0-0.3l7.3-24c0.2-0.7,0.6-1.1,1.3-1.1h4.9c0.6,0,1,0.4,1.3,1.1
			l7.3,24c0,0.1,0,0.2,0,0.3c0,0.2-0.1,0.4-0.2,0.5c-0.1,0.2-0.3,0.2-0.5,0.2h-4.1c-0.5,0-0.9-0.3-1.1-0.8l-1.6-5.3
			c-0.8,0.4-1.5,0.6-2.3,0.9c-0.8,0.2-1.5,0.4-2.2,0.5c-0.7,0.1-1.4,0.2-2,0.2c-0.6,0-1.2,0.1-1.6,0.1c-0.3,0-0.5,0-0.7,0
			s-0.4,0-0.5,0c0.4,0.1,0.7,0.3,0.9,0.8c0.2,0.4,0.3,0.9,0.1,1.5l-0.4,1.4c-0.2,0.6-0.5,0.8-1.1,0.8h-4.1
			C188.6,47.2,188.4,47.1,188.3,47z M196.2,37.3c0.6,0,1.2-0.1,1.8-0.3c0.5-0.1,1.1-0.2,1.7-0.4s1.2-0.5,1.7-0.8l-2.4-8.3
			L196.2,37.3z"/>
		<path class="st0" d="M231.3,47.1h-4.4c-0.6,0-1-0.3-1.3-1l-3.2-7.5c-0.2-0.4-0.5-0.6-0.8-0.6h-4.1c0.5,0,0.9,0.2,1.2,0.7
			c0.3,0.4,0.5,0.9,0.5,1.3v6.2c0,0.3-0.1,0.5-0.2,0.6c-0.1,0.2-0.3,0.3-0.6,0.3H214c-0.2,0-0.4-0.1-0.5-0.3s-0.2-0.4-0.2-0.6V24.1
			c0-0.9,0.3-1.7,0.8-2.3c0.5-0.6,1.2-0.9,1.9-0.9h6.7c1.2,0,2.3,0.2,3.3,0.5c1.1,0.3,2,0.8,2.8,1.5c0.8,0.7,1.5,1.6,1.9,2.7
			c0.5,1.1,0.7,2.4,0.7,4c0,1.5-0.3,2.9-0.8,4.1s-1.4,2.2-2.5,2.9c-0.2,0.1-0.3,0.3-0.3,0.5c0,0.2,0,0.3,0.1,0.4l4,8.6
			c0.1,0.2,0.1,0.3,0.1,0.4c0,0.2-0.1,0.4-0.2,0.5C231.6,47,231.4,47.1,231.3,47.1z M225.4,29.4c0-1-0.3-1.8-0.8-2.4
			c-0.5-0.5-1.2-0.8-2-0.8h-5.4c0.5,0,0.9,0.2,1.3,0.6c0.3,0.4,0.5,0.9,0.5,1.4v3.1c0,0.3,0.1,0.6,0.3,0.8c0.2,0.2,0.4,0.3,0.7,0.3
			h2.7c0.8,0,1.5-0.2,2-0.7C225.1,31.2,225.4,30.5,225.4,29.4z"/>
		<path class="st0" d="M251.8,20.8c0.2,0,0.4,0.1,0.6,0.3s0.2,0.4,0.2,0.7V26c0,0.3-0.1,0.5-0.2,0.7c-0.2,0.2-0.4,0.3-0.6,0.3h-7.3
			c0.5,0,0.9,0.2,1.2,0.6c0.4,0.4,0.5,0.9,0.5,1.4v17.3c0,0.3-0.1,0.5-0.3,0.6c-0.1,0.2-0.3,0.3-0.6,0.3h-4.4
			c-0.2,0-0.4-0.1-0.6-0.3c-0.2-0.2-0.3-0.4-0.3-0.6V28c0-0.4-0.1-0.6-0.3-0.8c-0.2-0.2-0.4-0.3-0.7-0.3h-4.6
			c-0.2,0-0.4-0.1-0.6-0.3c-0.2-0.2-0.3-0.4-0.3-0.7V24c0-0.5,0.1-0.9,0.2-1.3c0.2-0.4,0.4-0.7,0.6-1c0.3-0.3,0.6-0.5,0.9-0.7
			c0.3-0.2,0.7-0.2,1-0.2H251.8z"/>
		<path class="st0" d="M254.3,47c-0.1-0.2-0.2-0.4-0.2-0.6s0-0.3,0-0.3l7.3-24c0.2-0.7,0.6-1.1,1.3-1.1h4.9c0.6,0,1,0.4,1.3,1.1
			l7.3,24c0,0.1,0,0.2,0,0.3c0,0.2-0.1,0.4-0.2,0.5c-0.1,0.2-0.3,0.2-0.5,0.2h-4.1c-0.5,0-0.9-0.3-1.1-0.8l-1.6-5.3
			c-0.8,0.4-1.5,0.6-2.3,0.9c-0.8,0.2-1.5,0.4-2.2,0.5c-0.7,0.1-1.4,0.2-2,0.2c-0.6,0-1.2,0.1-1.6,0.1c-0.3,0-0.5,0-0.7,0
			s-0.4,0-0.5,0c0.4,0.1,0.7,0.3,0.9,0.8c0.2,0.4,0.3,0.9,0.1,1.5l-0.4,1.4c-0.2,0.6-0.5,0.8-1.1,0.8h-4.1
			C254.6,47.2,254.5,47.1,254.3,47z M262.3,37.3c0.6,0,1.2-0.1,1.8-0.3c0.5-0.1,1.1-0.2,1.7-0.4s1.2-0.5,1.7-0.8l-2.4-8.3
			L262.3,37.3z"/>
		<path class="st0" d="M285.8,37.4c0-0.4,0-0.8,0-1.4c0-0.6,0-1.2,0-2c0-0.8,0-1.5,0-2.1c0-0.6,0-1,0-1.4c0.1-1.7,0.4-3.2,0.9-4.5
			c0.5-1.3,1.2-2.3,2.1-3.1c0.9-0.8,1.9-1.4,3.1-1.8c1.2-0.4,2.4-0.6,3.8-0.6c0.8,0,1.6,0.1,2.4,0.2c0.8,0.1,1.6,0.4,2.4,0.7
			c0.8,0.3,1.5,0.8,2.2,1.3s1.2,1.2,1.7,2c0.8,1.2,1.2,2.5,1.2,3.7c0,0.2-0.1,0.4-0.2,0.6c-0.2,0.2-0.3,0.3-0.5,0.3H300
			c-0.2,0-0.3,0-0.5-0.2c-0.1-0.1-0.2-0.2-0.3-0.4c-0.3-0.9-0.8-1.6-1.4-2c-0.6-0.4-1.3-0.6-2.1-0.6c-2.4,0-3.7,1.5-3.8,4.5
			c0,0.4,0,0.8,0,1.3c0,0.5,0,1.2,0,1.9s0,1.4,0,1.9c0,0.5,0,1,0,1.4c0.1,1.6,0.4,2.8,1,3.6c0.6,0.8,1.7,1.2,3.3,1.2
			c0.5,0,0.9,0,1.2-0.1c0.3,0,0.6-0.1,0.8-0.2s0.4-0.2,0.6-0.3c0.2-0.1,0.3-0.3,0.5-0.5c0.5-0.5,0.8-1.1,0.9-1.8
			c0.1-0.4,0.2-0.7,0.4-1c0.2-0.3,0.4-0.5,0.6-0.6c0.2-0.2,0.4-0.3,0.6-0.4c0.2-0.1,0.4-0.1,0.5-0.1h-5.6c-0.2,0-0.4-0.1-0.6-0.3
			c-0.2-0.2-0.3-0.4-0.3-0.7v-0.6c0-0.4,0.1-0.8,0.2-1.2c0.1-0.4,0.3-0.7,0.5-1.1c0.2-0.3,0.5-0.6,0.8-0.8c0.3-0.2,0.7-0.3,1.2-0.3
			h4.6c0.8,0,1.3,0.2,1.7,0.7c0.3,0.5,0.5,1.1,0.5,2v2.6c0,1.8-0.3,3.3-0.8,4.6c-0.5,1.3-1.3,2.3-2.2,3.2c-0.9,0.8-2,1.4-3.2,1.8
			c-1.2,0.4-2.5,0.6-3.8,0.6c-1.4,0-2.7-0.2-3.8-0.6c-1.2-0.4-2.2-1-3.1-1.8c-0.9-0.8-1.6-1.9-2.1-3.2
			C286.2,40.7,285.9,39.2,285.8,37.4z"/>
		<path class="st0" d="M309.9,46.1V24c0-0.5,0.1-0.9,0.2-1.3c0.2-0.4,0.4-0.7,0.6-1c0.3-0.3,0.6-0.5,0.9-0.7c0.3-0.2,0.7-0.2,1-0.2
			h2.5c0.2,0,0.4,0.1,0.5,0.3c0.1,0.2,0.2,0.4,0.2,0.7V40c0,0.2,0.1,0.4,0.3,0.7c0.2,0.3,0.4,0.4,0.7,0.4h8.4c0.2,0,0.4,0.1,0.6,0.2
			c0.2,0.2,0.2,0.4,0.2,0.7v4c0,0.3-0.1,0.5-0.2,0.7c-0.2,0.2-0.4,0.2-0.6,0.2h-14.5c-0.2,0-0.4-0.1-0.5-0.3
			C310,46.6,309.9,46.4,309.9,46.1z"/>
		<path class="st0" d="M327.6,47c-0.1-0.2-0.2-0.4-0.2-0.6s0-0.3,0-0.3l7.3-24c0.2-0.7,0.6-1.1,1.3-1.1h4.9c0.6,0,1,0.4,1.3,1.1
			l7.3,24c0,0.1,0,0.2,0,0.3c0,0.2-0.1,0.4-0.2,0.5c-0.1,0.2-0.3,0.2-0.5,0.2h-4.1c-0.5,0-0.9-0.3-1.1-0.8L342,41
			c-0.8,0.4-1.5,0.6-2.3,0.9c-0.8,0.2-1.5,0.4-2.2,0.5c-0.7,0.1-1.4,0.2-2,0.2c-0.6,0-1.2,0.1-1.6,0.1c-0.3,0-0.5,0-0.7,0
			s-0.4,0-0.5,0c0.4,0.1,0.7,0.3,0.9,0.8c0.2,0.4,0.3,0.9,0.1,1.5l-0.4,1.4c-0.2,0.6-0.5,0.8-1.1,0.8h-4.1
			C327.9,47.2,327.8,47.1,327.6,47z M335.6,37.3c0.6,0,1.2-0.1,1.8-0.3c0.5-0.1,1.1-0.2,1.7-0.4s1.2-0.5,1.7-0.8l-2.4-8.3
			L335.6,37.3z"/>
		<path class="st0" d="M370.4,39.2c0,1.5-0.3,2.8-0.9,3.9c-0.6,1.1-1.4,1.9-2.3,2.6c-0.9,0.7-1.9,1.1-3.1,1.4
			c-1.1,0.3-2.2,0.4-3.3,0.4c-1,0-2.1-0.1-3.2-0.4c-1.1-0.3-2.1-0.7-3-1.3c-0.9-0.6-1.7-1.4-2.3-2.3c-0.6-1-1-2.2-1-3.6
			c0-0.2,0.1-0.4,0.2-0.6c0.1-0.2,0.3-0.2,0.5-0.2h4.2c0.1,0,0.2,0,0.3,0c0.1,0,0.2,0.1,0.3,0.1c0.1,0.1,0.3,0.3,0.5,0.5
			c0.3,0.8,0.8,1.4,1.5,1.6c0.7,0.3,1.3,0.4,2.1,0.4c0.3,0,0.7,0,1.1-0.1c0.4,0,0.8-0.2,1.1-0.3c0.3-0.2,0.6-0.4,0.9-0.7
			s0.4-0.7,0.4-1.2c0-0.7-0.2-1.2-0.6-1.5c-0.4-0.3-0.9-0.5-1.3-0.7c-0.4-0.2-0.8-0.3-1.3-0.4c-0.5-0.1-1.1-0.3-1.7-0.4
			c-1-0.2-1.9-0.5-2.8-0.9c-0.9-0.4-1.7-0.8-2.4-1.5c-0.7-0.6-1.3-1.4-1.7-2.3c-0.4-0.9-0.6-2-0.6-3.4c0-1.7,0.4-3.1,1.1-4.3
			s1.8-2.1,3-2.7c1.3-0.7,2.9-1,4.6-1c0.7,0,1.4,0.1,2.2,0.2s1.5,0.4,2.2,0.7c0.7,0.3,1.4,0.7,2,1.2c0.6,0.5,1.1,1.1,1.6,1.9
			c0.7,1.1,1.1,2.2,1.2,3.4c0,0.2-0.1,0.4-0.2,0.6c-0.1,0.2-0.3,0.3-0.5,0.3h-4.4c-0.4,0-0.8-0.2-1-0.7c-0.1-0.5-0.5-1-1-1.4
			c-0.6-0.4-1.2-0.5-1.9-0.5c-0.3,0-0.6,0-1,0.1c-0.3,0.1-0.6,0.2-0.9,0.3c-0.3,0.2-0.5,0.4-0.7,0.7s-0.3,0.7-0.3,1.1
			c0,0.7,0.3,1.3,0.9,1.7c0.6,0.4,1.8,0.8,3.5,1.2c1,0.2,2,0.5,2.9,0.8c1,0.3,1.8,0.8,2.6,1.3c0.8,0.6,1.4,1.3,1.8,2.2
			C370.1,36.6,370.4,37.8,370.4,39.2z"/>
	</g>
	<g>
		<path class="st19" d="M41.3,61.8c0-0.2,0-0.4,0-0.7c0-0.3,0-0.6,0-1c0-0.4,0-0.7,0-1c0-0.3,0-0.5,0-0.7c0-0.9,0.2-1.6,0.4-2.2
			c0.3-0.6,0.6-1.1,1.1-1.5c0.4-0.4,1-0.7,1.5-0.9c0.6-0.2,1.2-0.3,1.9-0.3c0.4,0,0.8,0,1.2,0.1c0.4,0.1,0.8,0.2,1.2,0.4
			c0.4,0.2,0.7,0.4,1.1,0.6c0.3,0.3,0.6,0.6,0.9,1c0.4,0.6,0.6,1.2,0.6,1.9c0,0.1,0,0.2-0.1,0.3c-0.1,0.1-0.2,0.1-0.3,0.1l-2.4,0
			c-0.1,0-0.2,0-0.3-0.1c-0.1-0.1-0.1-0.1-0.2-0.2c-0.2-0.5-0.4-0.8-0.7-1c-0.3-0.2-0.7-0.3-1.1-0.3c-1.2,0-1.8,0.7-1.9,2.2
			c0,0.2,0,0.4,0,0.7c0,0.3,0,0.6,0,1c0,0.4,0,0.7,0,1c0,0.3,0,0.5,0,0.7c0,0.8,0.2,1.4,0.5,1.8s0.9,0.6,1.6,0.6c0.3,0,0.5,0,0.6,0
			c0.2,0,0.3-0.1,0.4-0.1c0.1,0,0.2-0.1,0.3-0.2c0.1-0.1,0.2-0.1,0.3-0.2c0.2-0.2,0.4-0.5,0.5-0.9c0-0.2,0.1-0.4,0.2-0.5
			c0.1-0.1,0.2-0.2,0.3-0.3c0.1-0.1,0.2-0.1,0.3-0.2c0.1,0,0.2-0.1,0.3-0.1l-2.8,0c-0.1,0-0.2,0-0.3-0.2c-0.1-0.1-0.1-0.2-0.1-0.3
			l0-0.3c0-0.2,0-0.4,0.1-0.6c0.1-0.2,0.2-0.4,0.3-0.5c0.1-0.2,0.3-0.3,0.4-0.4c0.2-0.1,0.4-0.1,0.6-0.1l2.3,0
			c0.4,0,0.7,0.1,0.8,0.4c0.2,0.2,0.3,0.6,0.3,1l0,1.3c0,0.9-0.1,1.7-0.4,2.3c-0.3,0.6-0.6,1.2-1.1,1.6c-0.5,0.4-1,0.7-1.6,0.9
			c-0.6,0.2-1.2,0.3-1.9,0.3c-0.7,0-1.3-0.1-1.9-0.3c-0.6-0.2-1.1-0.5-1.5-0.9c-0.4-0.4-0.8-0.9-1-1.6
			C41.4,63.4,41.3,62.7,41.3,61.8z"/>
		<path class="st19" d="M62.2,66.7l-2.2,0c-0.3,0-0.5-0.2-0.6-0.5l-1.6-3.8c-0.1-0.2-0.2-0.3-0.4-0.3l-2.1,0c0.3,0,0.5,0.1,0.6,0.3
			c0.2,0.2,0.2,0.4,0.2,0.7l0,3.1c0,0.1,0,0.2-0.1,0.3c-0.1,0.1-0.2,0.1-0.3,0.1l-2.2,0c-0.1,0-0.2,0-0.3-0.1
			c-0.1-0.1-0.1-0.2-0.1-0.3l0-11c0-0.5,0.1-0.9,0.4-1.2c0.3-0.3,0.6-0.5,1-0.5l3.3,0c0.6,0,1.1,0.1,1.7,0.2c0.5,0.2,1,0.4,1.4,0.7
			s0.7,0.8,1,1.3c0.2,0.5,0.4,1.2,0.4,2c0,0.8-0.1,1.4-0.4,2c-0.3,0.6-0.7,1.1-1.3,1.5c-0.1,0.1-0.1,0.1-0.1,0.2c0,0.1,0,0.2,0,0.2
			l2,4.3c0,0.1,0,0.1,0,0.2c0,0.1,0,0.2-0.1,0.3C62.4,66.7,62.3,66.7,62.2,66.7z M59.3,57.8c0-0.5-0.1-0.9-0.4-1.2
			c-0.3-0.3-0.6-0.4-1-0.4l-2.7,0c0.3,0,0.5,0.1,0.6,0.3s0.2,0.4,0.2,0.7l0,1.5c0,0.2,0,0.3,0.1,0.4c0.1,0.1,0.2,0.2,0.3,0.2l1.4,0
			c0.4,0,0.7-0.1,1-0.4C59.2,58.7,59.3,58.4,59.3,57.8z"/>
		<path class="st19" d="M64.5,66.2l0-11c0-0.5,0.1-0.9,0.4-1.2c0.3-0.3,0.6-0.5,1-0.5l6.4,0c0.1,0,0.2,0,0.3,0.1
			c0.1,0.1,0.1,0.2,0.1,0.3l0,1.9c0,0.1,0,0.2-0.1,0.3c-0.1,0.1-0.2,0.1-0.3,0.1l-5.8,0c0.3,0,0.5,0.1,0.6,0.3
			c0.2,0.2,0.2,0.4,0.2,0.7l0,0.8c0,0.1,0,0.3,0.1,0.4c0.1,0.1,0.2,0.2,0.4,0.2l3.4,0c0.1,0,0.2,0,0.3,0.1c0.1,0.1,0.1,0.2,0.1,0.3
			l0,1.7c0,0.1,0,0.3-0.1,0.3c-0.1,0.1-0.2,0.1-0.3,0.1l-4.8,0c0.2,0,0.4,0.1,0.6,0.3s0.2,0.4,0.2,0.7l0,0.9c0,0.1,0,0.3,0.1,0.4
			c0.1,0.1,0.2,0.2,0.3,0.2l4.6,0c0.3,0,0.4,0.2,0.4,0.5l0,1.8c0,0.2,0,0.3-0.1,0.3c-0.1,0.1-0.2,0.1-0.3,0.1l-7.5,0
			c-0.1,0-0.2,0-0.3-0.1C64.5,66.5,64.5,66.4,64.5,66.2z"/>
		<path class="st19" d="M74.9,66.3l0-11c0-0.5,0.1-0.9,0.4-1.2c0.3-0.3,0.6-0.5,1-0.5l6.4,0c0.1,0,0.2,0,0.3,0.1
			c0.1,0.1,0.1,0.2,0.1,0.3l0,1.9c0,0.1,0,0.2-0.1,0.3c-0.1,0.1-0.2,0.1-0.3,0.1l-5.8,0c0.3,0,0.5,0.1,0.6,0.3
			c0.2,0.2,0.2,0.4,0.2,0.7l0,0.8c0,0.1,0,0.3,0.1,0.4c0.1,0.1,0.2,0.2,0.4,0.2l3.4,0c0.1,0,0.2,0,0.3,0.1c0.1,0.1,0.1,0.2,0.1,0.3
			l0,1.7c0,0.1,0,0.3-0.1,0.3c-0.1,0.1-0.2,0.1-0.3,0.1l-4.8,0c0.2,0,0.4,0.1,0.6,0.3s0.2,0.4,0.2,0.7l0,0.9c0,0.1,0,0.3,0.1,0.4
			c0.1,0.1,0.2,0.2,0.3,0.2l4.6,0c0.3,0,0.4,0.2,0.4,0.5l0,1.8c0,0.2,0,0.3-0.1,0.3c-0.1,0.1-0.2,0.1-0.3,0.1l-7.5,0
			c-0.1,0-0.2,0-0.3-0.1C74.9,66.5,74.9,66.4,74.9,66.3z"/>
		<path class="st19" d="M85.3,66.3l0-11c0-0.4,0.1-0.8,0.4-1.1c0.3-0.3,0.6-0.5,1-0.5l0.5,0c0.1,0,0.3,0,0.4,0.1
			c0.2,0.1,0.3,0.2,0.5,0.5c0.6,1.2,1.2,2.2,1.7,3.1c0.3,0.6,0.5,1,0.7,1.3c0.2,0.3,0.3,0.6,0.5,0.9c0.2,0.3,0.3,0.5,0.4,0.7
			c0.1,0.2,0.2,0.3,0.2,0.4c0,0,0,0,0.1,0c0.1,0,0.1,0,0.1-0.1l0-5.4c0-0.5,0.1-0.9,0.4-1.2s0.6-0.5,1-0.4l1,0c0.1,0,0.2,0,0.3,0.1
			c0.1,0.1,0.1,0.2,0.1,0.4l0,12.2c0,0.1,0,0.2-0.1,0.3c-0.1,0.1-0.2,0.1-0.3,0.1l-1.8,0c-0.2,0-0.4-0.1-0.5-0.4
			c-0.6-1.2-1.2-2.2-1.7-3.1c-0.3-0.6-0.5-1-0.7-1.3c-0.2-0.3-0.3-0.6-0.5-0.9s-0.3-0.5-0.4-0.7c-0.1-0.2-0.2-0.3-0.2-0.3
			c0,0-0.1-0.1-0.1-0.1c-0.1,0-0.1,0-0.1,0.1l0,6.3c0,0.1,0,0.2-0.1,0.3c-0.1,0.1-0.2,0.1-0.3,0.1l-2,0c-0.1,0-0.2-0.1-0.3-0.2
			C85.3,66.5,85.3,66.4,85.3,66.3z"/>
		<path class="st19" d="M100.5,66.3l0-11c0-0.2,0-0.5,0.1-0.7c0.1-0.2,0.2-0.4,0.3-0.5c0.1-0.1,0.3-0.2,0.4-0.3
			c0.2-0.1,0.3-0.1,0.5-0.1l1.2,0c0.1,0,0.2,0,0.3,0.1c0.1,0.1,0.1,0.2,0.1,0.3l0,9.1c0,0.1,0,0.2,0.1,0.4c0.1,0.1,0.2,0.2,0.4,0.2
			l4.2,0c0.1,0,0.2,0,0.3,0.1c0.1,0.1,0.1,0.2,0.1,0.3l0,2c0,0.2,0,0.3-0.1,0.3c-0.1,0.1-0.2,0.1-0.3,0.1l-7.3,0
			c-0.1,0-0.2-0.1-0.3-0.2C100.6,66.5,100.5,66.4,100.5,66.3z"/>
		<path class="st19" d="M110.2,66.4l0-11c0-0.5,0.1-0.9,0.4-1.2s0.6-0.5,1-0.5l6.4,0c0.1,0,0.2,0,0.3,0.1c0.1,0.1,0.1,0.2,0.1,0.3
			l0,1.9c0,0.1,0,0.2-0.1,0.3c-0.1,0.1-0.2,0.1-0.3,0.1l-5.8,0c0.3,0,0.5,0.1,0.6,0.3c0.2,0.2,0.2,0.4,0.2,0.7l0,0.8
			c0,0.1,0,0.3,0.1,0.4c0.1,0.1,0.2,0.2,0.4,0.2l3.4,0c0.1,0,0.2,0,0.3,0.1c0.1,0.1,0.1,0.2,0.1,0.3l0,1.7c0,0.1,0,0.3-0.1,0.3
			c-0.1,0.1-0.2,0.1-0.3,0.1l-4.8,0c0.2,0,0.4,0.1,0.6,0.3c0.2,0.2,0.2,0.4,0.2,0.7l0,0.9c0,0.1,0,0.3,0.1,0.4
			c0.1,0.1,0.2,0.2,0.3,0.2l4.6,0c0.3,0,0.4,0.2,0.4,0.5l0,1.8c0,0.2,0,0.3-0.1,0.3c-0.1,0.1-0.2,0.1-0.3,0.1l-7.5,0
			c-0.1,0-0.2,0-0.3-0.1C110.3,66.6,110.2,66.5,110.2,66.4z"/>
		<path class="st19" d="M120.7,66.4l0-11c0-0.2,0-0.5,0.1-0.7c0.1-0.2,0.2-0.4,0.3-0.5c0.1-0.1,0.3-0.3,0.4-0.3
			c0.2-0.1,0.3-0.1,0.5-0.1l6.3,0c0.1,0,0.2,0.1,0.3,0.2c0.1,0.1,0.1,0.2,0.1,0.3l0,2c0,0.1,0,0.2-0.1,0.3c-0.1,0.1-0.2,0.1-0.3,0.1
			l-5.7,0c0.2,0,0.4,0.1,0.6,0.3c0.2,0.2,0.3,0.4,0.3,0.7l0,1.6l3.8,0c0.3,0,0.4,0.2,0.4,0.5l0,2c0,0.2,0,0.3-0.1,0.3
			c-0.1,0.1-0.2,0.1-0.3,0.1l-4.6,0c0.2,0,0.4,0.1,0.6,0.3c0.2,0.2,0.3,0.4,0.3,0.7l0,3.2c0,0.1,0,0.3-0.1,0.3
			c-0.1,0.1-0.2,0.1-0.3,0.1l-2.1,0c-0.1,0-0.2,0-0.3-0.1C120.7,66.6,120.7,66.5,120.7,66.4z"/>
		<path class="st19" d="M138.9,53.8c0.1,0,0.2,0,0.3,0.1c0.1,0.1,0.1,0.2,0.1,0.3l0,2.1c0,0.1,0,0.3-0.1,0.3s-0.2,0.1-0.3,0.1
			l-3.6,0c0.2,0,0.4,0.1,0.6,0.3c0.2,0.2,0.3,0.4,0.3,0.7l0,8.6c0,0.1,0,0.2-0.1,0.3c-0.1,0.1-0.2,0.1-0.3,0.1l-2.2,0
			c-0.1,0-0.2,0-0.3-0.1c-0.1-0.1-0.1-0.2-0.1-0.3l0-9c0-0.2,0-0.3-0.1-0.4c-0.1-0.1-0.2-0.2-0.3-0.2l-2.3,0c-0.1,0-0.2,0-0.3-0.1
			c-0.1-0.1-0.1-0.2-0.1-0.3l0-1c0-0.2,0-0.5,0.1-0.7c0.1-0.2,0.2-0.4,0.3-0.5c0.1-0.1,0.3-0.3,0.4-0.3c0.2-0.1,0.3-0.1,0.5-0.1
			L138.9,53.8z"/>
	</g>
	<linearGradient id="SVGID_1_" gradientUnits="userSpaceOnUse" x1="0.206" y1="26.8081" x2="34.538" y2="26.8081">
		<stop  offset="2.748116e-04" style="stop-color:#2E6A76"/>
		<stop  offset="1" style="stop-color:#68B2A0"/>
	</linearGradient>
	<path class="st1" d="M29.6,32.1c-5-1.5-8.2-4.6-12.1-7.9c-3.4-2.8-6.3-5.2-7.8-6.4c-2.9-2.3-7.7-5.1-9.5-5.5v8.4
		c6.5,1.5,16.4,11.6,23.4,16.7c2.6,1.9,5.7,3.2,8.9,3.6c0.9,0.1,1.5,0.1,2,0.2v-8.4C33.6,32.9,31.8,32.8,29.6,32.1z"/>
	<linearGradient id="SVGID_2_" gradientUnits="userSpaceOnUse" x1="0.206" y1="14.3043" x2="34.538" y2="14.3043">
		<stop  offset="2.748116e-04" style="stop-color:#2E6A76"/>
		<stop  offset="1" style="stop-color:#68B2A0"/>
	</linearGradient>
	<path class="st2" d="M29.6,19.6c-5-1.5-8.2-4.6-12.1-7.9C14,8.9,11.1,6.5,9.7,5.4C6.8,3,2,0.3,0.2-0.2v8.4
		C6.7,9.8,16.6,19.9,23.6,25c2.6,1.9,5.7,3.2,8.9,3.6c0.9,0.1,1.5,0.1,2,0.2v-8.4C33.6,20.4,31.8,20.3,29.6,19.6z"/>
	<linearGradient id="SVGID_3_" gradientUnits="userSpaceOnUse" x1="0.206" y1="39.3118" x2="34.538" y2="39.3118">
		<stop  offset="2.748116e-04" style="stop-color:#2E6A76"/>
		<stop  offset="1" style="stop-color:#68B2A0"/>
	</linearGradient>
	<path class="st3" d="M29.6,44.6c-5-1.5-8.2-4.6-12.1-7.9c-3.4-2.8-6.3-5.2-7.8-6.4C6.8,28,2,25.3,0.2,24.8v8.4
		C6.7,34.8,16.6,44.9,23.6,50c2.6,1.9,5.7,3.2,8.9,3.6c0.9,0.1,1.5,0.1,2,0.2v-8.4C33.6,45.4,31.8,45.3,29.6,44.6z"/>
	<linearGradient id="SVGID_4_" gradientUnits="userSpaceOnUse" x1="0.206" y1="51.8155" x2="34.538" y2="51.8155">
		<stop  offset="2.748116e-04" style="stop-color:#2E6A76"/>
		<stop  offset="1" style="stop-color:#68B2A0"/>
	</linearGradient>
	<path class="st4" d="M29.6,57.1c-5-1.5-8.2-4.6-12.1-7.9c-3.4-2.8-6.3-5.2-7.8-6.4c-2.9-2.3-7.7-5.1-9.5-5.5v8.4
		c6.5,1.5,16.4,11.6,23.4,16.7c2.6,1.9,5.7,3.2,8.9,3.6c0.9,0.1,1.5,0.1,2,0.2v-8.4C33.6,57.9,31.8,57.8,29.6,57.1z"/>
</g>
<g id="Layer_2">
</g>
</svg>
