<?xml version="1.0" encoding="UTF-8" standalone="no"?>
<!-- Taken from https://anrabhartaglas.ie -->

<!-- Generator: Adobe Illustrator 24.0.1, SVG Export Plug-In . SVG Version: 6.00 Build 0)  -->

<svg
   xmlns:dc="http://purl.org/dc/elements/1.1/"
   xmlns:cc="http://creativecommons.org/ns#"
   xmlns:rdf="http://www.w3.org/1999/02/22-rdf-syntax-ns#"
   xmlns:svg="http://www.w3.org/2000/svg"
   xmlns="http://www.w3.org/2000/svg"
   xmlns:sodipodi="http://sodipodi.sourceforge.net/DTD/sodipodi-0.dtd"
   xmlns:inkscape="http://www.inkscape.org/namespaces/inkscape"
   version="1.1"
   x="0px"
   y="0px"
   viewBox="0 0 396.7 68.7"
   style="enable-background:new 0 0 396.7 68.7;"
   xml:space="preserve"
   id="svg916"
   sodipodi:docname="rabharta-logo.svg"
   inkscape:version="0.92.5 (2060ec1f9f, 2020-04-08)"><metadata
   id="metadata922"><rdf:RDF><cc:Work
       rdf:about=""><dc:format>image/svg+xml</dc:format><dc:type
         rdf:resource="http://purl.org/dc/dcmitype/StillImage" /><dc:title></dc:title></cc:Work></rdf:RDF></metadata><defs
   id="defs920" /><sodipodi:namedview
   pagecolor="#ffffff"
   bordercolor="#ffffff"
   borderopacity="1"
   objecttolerance="10"
   gridtolerance="10"
   guidetolerance="10"
   inkscape:pageopacity="1"
   inkscape:pageshadow="2"
   inkscape:window-width="3696"
   inkscape:window-height="2032"
   id="namedview918"
   showgrid="false"
   inkscape:pagecheckerboard="false"
   showguides="false"
   inkscape:guide-bbox="true"
   inkscape:zoom="4"
   inkscape:cx="199.81632"
   inkscape:cy="-12.805583"
   inkscape:window-x="144"
   inkscape:window-y="54"
   inkscape:window-maximized="1"
   inkscape:current-layer="Layer_1"><inkscape:grid
     type="xygrid"
     id="grid996" /><sodipodi:guide
     position="35.09375,48.308594"
     orientation="0,1"
     id="guide998"
     inkscape:locked="false" /><sodipodi:guide
     position="35.078124,2.4882814"
     orientation="0,1"
     id="guide1000"
     inkscape:locked="false" /></sodipodi:namedview>
<style
   type="text/css"
   id="style834">
	.st0{fill:#2E6A76;}
	.st1{fill:url(#SVGID_1_);}
	.st2{fill:url(#SVGID_2_);}
	.st3{fill:url(#SVGID_3_);}
	.st4{fill:url(#SVGID_4_);}
	.st5{fill:#282828;}
	.st6{fill:url(#SVGID_5_);}
	.st7{fill:url(#SVGID_6_);}
	.st8{fill:url(#SVGID_7_);}
	.st9{fill:url(#SVGID_8_);}
	.st10{fill:#F0EFEF;}
	.st11{fill:url(#SVGID_9_);}
	.st12{fill:url(#SVGID_10_);}
	.st13{fill:url(#SVGID_11_);}
	.st14{fill:url(#SVGID_12_);}
	.st15{fill:url(#SVGID_13_);}
	.st16{fill:url(#SVGID_14_);}
	.st17{fill:url(#SVGID_15_);}
	.st18{fill:url(#SVGID_16_);}
	.st19{fill:#68B2A0;}
	.st20{fill:url(#SVGID_17_);}
	.st21{fill:url(#SVGID_18_);}
	.st22{fill:url(#SVGID_19_);}
	.st23{fill:url(#SVGID_20_);}
	.st24{fill:#2A2B2B;}
	.st25{fill:#767676;}
	.st26{fill:url(#SVGID_21_);}
	.st27{fill:url(#SVGID_22_);}
	.st28{fill:url(#SVGID_23_);}
	.st29{fill:url(#SVGID_24_);}
	.st30{fill:#E2E2E2;}
	.st31{fill:url(#SVGID_25_);}
	.st32{fill:url(#SVGID_26_);}
	.st33{fill:url(#SVGID_27_);}
	.st34{fill:url(#SVGID_28_);}
	.st35{fill:url(#SVGID_29_);}
	.st36{fill:url(#SVGID_30_);}
	.st37{fill:url(#SVGID_31_);}
	.st38{fill:url(#SVGID_32_);}
	.st39{fill:url(#SVGID_33_);}
	.st40{fill:url(#SVGID_34_);}
	.st41{fill:url(#SVGID_35_);}
	.st42{fill:url(#SVGID_36_);}
	.st43{fill:url(#SVGID_37_);}
	.st44{fill:url(#SVGID_38_);}
	.st45{fill:url(#SVGID_39_);}
	.st46{fill:url(#SVGID_40_);}
	.st47{fill:url(#SVGID_41_);}
	.st48{fill:url(#SVGID_42_);}
	.st49{fill:url(#SVGID_43_);}
	.st50{fill:url(#SVGID_44_);}
	.st51{fill:url(#SVGID_45_);}
	.st52{fill:url(#SVGID_46_);}
	.st53{fill:url(#SVGID_47_);}
	.st54{fill:url(#SVGID_48_);}
</style>
<g
   id="Layer_1">
	<g
   id="g864"
   transform="matrix(1.7471371,0,0,1.7471371,-130.20983,-16.078442)">
		
		
		<path
   class="st0"
   d="M 115.4,47.1 H 111 c -0.6,0 -1,-0.3 -1.3,-1 l -3.2,-7.5 C 106.3,38.2 106,38 105.7,38 h -4.1 c 0.5,0 0.9,0.2 1.2,0.7 0.3,0.4 0.5,0.9 0.5,1.3 v 6.2 c 0,0.3 -0.1,0.5 -0.2,0.6 -0.1,0.2 -0.3,0.3 -0.6,0.3 H 98.2 C 98,47.1 97.8,47 97.7,46.8 97.6,46.6 97.5,46.4 97.5,46.2 V 24.1 c 0,-0.9 0.3,-1.7 0.8,-2.3 0.5,-0.6 1.2,-0.9 1.9,-0.9 h 6.7 c 1.2,0 2.3,0.2 3.3,0.5 1.1,0.3 2,0.8 2.8,1.5 0.8,0.7 1.5,1.6 1.9,2.7 0.5,1.1 0.7,2.4 0.7,4 0,1.5 -0.3,2.9 -0.8,4.1 -0.5,1.2 -1.4,2.2 -2.5,2.9 -0.2,0.1 -0.3,0.3 -0.3,0.5 0,0.2 0,0.3 0.1,0.4 l 4,8.6 c 0.1,0.2 0.1,0.3 0.1,0.4 0,0.2 -0.1,0.4 -0.2,0.5 -0.3,0 -0.5,0.1 -0.6,0.1 z m -5.9,-17.7 c 0,-1 -0.3,-1.8 -0.8,-2.4 -0.5,-0.5 -1.2,-0.8 -2,-0.8 h -5.4 c 0.5,0 0.9,0.2 1.3,0.6 0.3,0.4 0.5,0.9 0.5,1.4 v 3.1 c 0,0.3 0.1,0.6 0.3,0.8 0.2,0.2 0.4,0.3 0.7,0.3 h 2.7 c 0.8,0 1.5,-0.2 2,-0.7 0.4,-0.5 0.7,-1.2 0.7,-2.3 z"
   id="path840"
   inkscape:connector-curvature="0"
   style="fill:#2e6a76" />
		<path
   class="st0"
   d="m 118.1,47 c -0.1,-0.2 -0.2,-0.4 -0.2,-0.6 0,-0.2 0,-0.3 0,-0.3 l 7.3,-24 c 0.2,-0.7 0.6,-1.1 1.3,-1.1 h 4.9 c 0.6,0 1,0.4 1.3,1.1 l 7.3,24 c 0,0.1 0,0.2 0,0.3 0,0.2 -0.1,0.4 -0.2,0.5 -0.1,0.2 -0.3,0.2 -0.5,0.2 h -4.1 c -0.5,0 -0.9,-0.3 -1.1,-0.8 L 132.5,41 c -0.8,0.4 -1.5,0.6 -2.3,0.9 -0.8,0.2 -1.5,0.4 -2.2,0.5 -0.7,0.1 -1.4,0.2 -2,0.2 -0.6,0 -1.2,0.1 -1.6,0.1 -0.3,0 -0.5,0 -0.7,0 -0.2,0 -0.4,0 -0.5,0 0.4,0.1 0.7,0.3 0.9,0.8 0.2,0.4 0.3,0.9 0.1,1.5 l -0.4,1.4 c -0.2,0.6 -0.5,0.8 -1.1,0.8 h -4.1 c -0.2,0 -0.4,-0.1 -0.5,-0.2 z m 8,-9.7 c 0.6,0 1.2,-0.1 1.8,-0.3 0.5,-0.1 1.1,-0.2 1.7,-0.4 0.6,-0.2 1.2,-0.5 1.7,-0.8 l -2.4,-8.3 z"
   id="path842"
   inkscape:connector-curvature="0"
   style="fill:#2e6a76" />
		<path
   class="st0"
   d="m 143,46.1 v -22 c 0,-0.6 0.1,-1.1 0.3,-1.5 0.2,-0.4 0.4,-0.7 0.7,-1 0.3,-0.3 0.6,-0.5 0.9,-0.6 0.3,-0.1 0.6,-0.2 0.9,-0.2 h 7.7 c 1.1,0 2.1,0.1 3,0.4 0.9,0.2 1.8,0.6 2.5,1.2 0.7,0.6 1.3,1.4 1.7,2.3 0.4,1 0.6,2.2 0.6,3.6 0,1.1 -0.2,2.1 -0.7,2.9 -0.5,0.9 -1.1,1.6 -1.9,2.1 0.9,0.5 1.7,1.2 2.2,2.3 0.5,1.1 0.8,2.2 0.8,3.4 0,1.5 -0.2,2.7 -0.6,3.7 -0.4,1 -1,1.8 -1.7,2.5 -0.7,0.6 -1.6,1.1 -2.6,1.4 -1,0.3 -2,0.4 -3.1,0.4 h -9.9 c -0.2,0 -0.4,-0.1 -0.5,-0.3 -0.1,-0.2 -0.3,-0.3 -0.3,-0.6 z m 9.8,-14.9 c 0.7,0 1.3,-0.2 1.7,-0.7 0.4,-0.5 0.7,-1.1 0.7,-2 0,-0.9 -0.2,-1.5 -0.7,-2 -0.5,-0.4 -1,-0.7 -1.7,-0.7 h -5.7 c 0.5,0 0.9,0.2 1.2,0.6 0.3,0.4 0.5,0.9 0.5,1.4 v 2.3 c 0,0.2 0.1,0.5 0.3,0.7 0.2,0.3 0.4,0.4 0.7,0.4 z m 0.3,10.8 c 0.8,0 1.4,-0.3 1.8,-0.8 0.5,-0.5 0.7,-1.2 0.7,-2.1 0,-0.9 -0.2,-1.6 -0.7,-2.2 -0.5,-0.5 -1.1,-0.8 -1.8,-0.8 h -5.9 c 0.5,0 0.9,0.2 1.2,0.6 0.3,0.4 0.5,0.9 0.5,1.4 v 2.8 c 0,0.3 0.1,0.5 0.2,0.8 0.2,0.3 0.4,0.4 0.7,0.4 h 3.3 z"
   id="path844"
   inkscape:connector-curvature="0"
   style="fill:#2e6a76" />
		<path
   class="st0"
   d="m 165.9,46.2 v -22 c 0,-0.9 0.3,-1.7 0.8,-2.3 0.5,-0.6 1.2,-0.9 1.9,-0.9 h 2.3 c 0.5,0 0.8,0.3 0.8,1 v 8.7 c 0,0.4 0.1,0.7 0.4,0.9 0.3,0.2 0.5,0.2 0.6,0.2 1.3,0 2.4,-0.1 3.3,-0.4 0.9,-0.2 1.7,-0.5 2.5,-1 0.2,-0.1 0.3,-0.2 0.4,-0.4 0.1,-0.2 0.2,-0.4 0.2,-0.7 v -5.2 c 0,-0.5 0.1,-1 0.2,-1.4 0.1,-0.4 0.4,-0.7 0.6,-1 0.3,-0.3 0.6,-0.5 0.9,-0.7 0.3,-0.2 0.7,-0.2 1,-0.2 h 2.3 c 0.5,0 0.8,0.3 0.8,1 v 24.3 c 0,0.3 -0.1,0.5 -0.2,0.7 -0.1,0.2 -0.3,0.2 -0.6,0.2 H 180 c -0.2,0 -0.4,-0.1 -0.6,-0.3 -0.2,-0.2 -0.3,-0.4 -0.3,-0.7 v -8.9 c 0,-0.4 -0.1,-0.7 -0.3,-0.8 -0.2,-0.1 -0.4,-0.3 -0.6,-0.3 -0.1,0 -0.2,0 -0.3,0.1 -1,0.4 -2.1,0.6 -3.1,0.7 -1,0.1 -2,0.2 -2.7,0.2 -0.4,0 -0.8,0 -1.1,0 -0.3,0 -0.5,0 -0.7,0 0.4,0.1 0.8,0.3 1.1,0.7 0.3,0.4 0.4,0.8 0.4,1.3 v 7.2 c 0,0.3 -0.1,0.5 -0.2,0.7 -0.1,0.2 -0.3,0.2 -0.6,0.2 h -4.3 c -0.2,0 -0.4,-0.1 -0.6,-0.3 -0.1,-0.1 -0.2,-0.3 -0.2,-0.6 z"
   id="path846"
   inkscape:connector-curvature="0"
   style="fill:#2e6a76" />
		<path
   class="st0"
   d="m 188.3,47 c -0.1,-0.2 -0.2,-0.4 -0.2,-0.6 0,-0.2 0,-0.3 0,-0.3 l 7.3,-24 c 0.2,-0.7 0.6,-1.1 1.3,-1.1 h 4.9 c 0.6,0 1,0.4 1.3,1.1 l 7.3,24 c 0,0.1 0,0.2 0,0.3 0,0.2 -0.1,0.4 -0.2,0.5 -0.1,0.2 -0.3,0.2 -0.5,0.2 h -4.1 c -0.5,0 -0.9,-0.3 -1.1,-0.8 L 202.7,41 c -0.8,0.4 -1.5,0.6 -2.3,0.9 -0.8,0.2 -1.5,0.4 -2.2,0.5 -0.7,0.1 -1.4,0.2 -2,0.2 -0.6,0 -1.2,0.1 -1.6,0.1 -0.3,0 -0.5,0 -0.7,0 -0.2,0 -0.4,0 -0.5,0 0.4,0.1 0.7,0.3 0.9,0.8 0.2,0.4 0.3,0.9 0.1,1.5 l -0.4,1.4 c -0.2,0.6 -0.5,0.8 -1.1,0.8 h -4.1 c -0.2,0 -0.4,-0.1 -0.5,-0.2 z m 7.9,-9.7 c 0.6,0 1.2,-0.1 1.8,-0.3 0.5,-0.1 1.1,-0.2 1.7,-0.4 0.6,-0.2 1.2,-0.5 1.7,-0.8 L 199,27.5 Z"
   id="path848"
   inkscape:connector-curvature="0"
   style="fill:#2e6a76" />
		<path
   class="st0"
   d="m 231.3,47.1 h -4.4 c -0.6,0 -1,-0.3 -1.3,-1 l -3.2,-7.5 C 222.2,38.2 221.9,38 221.6,38 h -4.1 c 0.5,0 0.9,0.2 1.2,0.7 0.3,0.4 0.5,0.9 0.5,1.3 v 6.2 c 0,0.3 -0.1,0.5 -0.2,0.6 -0.1,0.2 -0.3,0.3 -0.6,0.3 H 214 c -0.2,0 -0.4,-0.1 -0.5,-0.3 -0.1,-0.2 -0.2,-0.4 -0.2,-0.6 V 24.1 c 0,-0.9 0.3,-1.7 0.8,-2.3 0.5,-0.6 1.2,-0.9 1.9,-0.9 h 6.7 c 1.2,0 2.3,0.2 3.3,0.5 1.1,0.3 2,0.8 2.8,1.5 0.8,0.7 1.5,1.6 1.9,2.7 0.5,1.1 0.7,2.4 0.7,4 0,1.5 -0.3,2.9 -0.8,4.1 -0.5,1.2 -1.4,2.2 -2.5,2.9 -0.2,0.1 -0.3,0.3 -0.3,0.5 0,0.2 0,0.3 0.1,0.4 l 4,8.6 c 0.1,0.2 0.1,0.3 0.1,0.4 0,0.2 -0.1,0.4 -0.2,0.5 -0.2,0 -0.4,0.1 -0.5,0.1 z m -5.9,-17.7 c 0,-1 -0.3,-1.8 -0.8,-2.4 -0.5,-0.5 -1.2,-0.8 -2,-0.8 h -5.4 c 0.5,0 0.9,0.2 1.3,0.6 0.3,0.4 0.5,0.9 0.5,1.4 v 3.1 c 0,0.3 0.1,0.6 0.3,0.8 0.2,0.2 0.4,0.3 0.7,0.3 h 2.7 c 0.8,0 1.5,-0.2 2,-0.7 0.4,-0.5 0.7,-1.2 0.7,-2.3 z"
   id="path850"
   inkscape:connector-curvature="0"
   style="fill:#2e6a76" />
		<path
   class="st0"
   d="m 251.8,20.8 c 0.2,0 0.4,0.1 0.6,0.3 0.2,0.2 0.2,0.4 0.2,0.7 V 26 c 0,0.3 -0.1,0.5 -0.2,0.7 -0.2,0.2 -0.4,0.3 -0.6,0.3 h -7.3 c 0.5,0 0.9,0.2 1.2,0.6 0.4,0.4 0.5,0.9 0.5,1.4 v 17.3 c 0,0.3 -0.1,0.5 -0.3,0.6 -0.1,0.2 -0.3,0.3 -0.6,0.3 h -4.4 c -0.2,0 -0.4,-0.1 -0.6,-0.3 -0.2,-0.2 -0.3,-0.4 -0.3,-0.6 V 28 c 0,-0.4 -0.1,-0.6 -0.3,-0.8 -0.2,-0.2 -0.4,-0.3 -0.7,-0.3 h -4.6 c -0.2,0 -0.4,-0.1 -0.6,-0.3 -0.2,-0.2 -0.3,-0.4 -0.3,-0.7 V 24 c 0,-0.5 0.1,-0.9 0.2,-1.3 0.2,-0.4 0.4,-0.7 0.6,-1 0.3,-0.3 0.6,-0.5 0.9,-0.7 0.3,-0.2 0.7,-0.2 1,-0.2 z"
   id="path852"
   inkscape:connector-curvature="0"
   style="fill:#2e6a76" />
		<path
   class="st0"
   d="m 254.3,47 c -0.1,-0.2 -0.2,-0.4 -0.2,-0.6 0,-0.2 0,-0.3 0,-0.3 l 7.3,-24 c 0.2,-0.7 0.6,-1.1 1.3,-1.1 h 4.9 c 0.6,0 1,0.4 1.3,1.1 l 7.3,24 c 0,0.1 0,0.2 0,0.3 0,0.2 -0.1,0.4 -0.2,0.5 -0.1,0.2 -0.3,0.2 -0.5,0.2 h -4.1 c -0.5,0 -0.9,-0.3 -1.1,-0.8 L 268.7,41 c -0.8,0.4 -1.5,0.6 -2.3,0.9 -0.8,0.2 -1.5,0.4 -2.2,0.5 -0.7,0.1 -1.4,0.2 -2,0.2 -0.6,0 -1.2,0.1 -1.6,0.1 -0.3,0 -0.5,0 -0.7,0 -0.2,0 -0.4,0 -0.5,0 0.4,0.1 0.7,0.3 0.9,0.8 0.2,0.4 0.3,0.9 0.1,1.5 l -0.4,1.4 c -0.2,0.6 -0.5,0.8 -1.1,0.8 h -4.1 c -0.2,0 -0.3,-0.1 -0.5,-0.2 z m 8,-9.7 c 0.6,0 1.2,-0.1 1.8,-0.3 0.5,-0.1 1.1,-0.2 1.7,-0.4 0.6,-0.2 1.2,-0.5 1.7,-0.8 l -2.4,-8.3 z"
   id="path854"
   inkscape:connector-curvature="0"
   style="fill:#2e6a76" />
		
		
		
		
	</g>
	
	<linearGradient
   id="SVGID_1_"
   gradientUnits="userSpaceOnUse"
   x1="0.206"
   y1="26.8081"
   x2="34.538"
   y2="26.8081">
		<stop
   offset="2.748116e-04"
   style="stop-color:#2E6A76"
   id="stop886" />
		<stop
   offset="1"
   style="stop-color:#68B2A0"
   id="stop888" />
	</linearGradient>
	<path
   class="st1"
   d="M29.6,32.1c-5-1.5-8.2-4.6-12.1-7.9c-3.4-2.8-6.3-5.2-7.8-6.4c-2.9-2.3-7.7-5.1-9.5-5.5v8.4   c6.5,1.5,16.4,11.6,23.4,16.7c2.6,1.9,5.7,3.2,8.9,3.6c0.9,0.1,1.5,0.1,2,0.2v-8.4C33.6,32.9,31.8,32.8,29.6,32.1z"
   id="path891" />
	<linearGradient
   id="SVGID_2_"
   gradientUnits="userSpaceOnUse"
   x1="0.206"
   y1="14.3043"
   x2="34.538"
   y2="14.3043">
		<stop
   offset="2.748116e-04"
   style="stop-color:#2E6A76"
   id="stop893" />
		<stop
   offset="1"
   style="stop-color:#68B2A0"
   id="stop895" />
	</linearGradient>
	<path
   class="st2"
   d="M29.6,19.6c-5-1.5-8.2-4.6-12.1-7.9C14,8.9,11.1,6.5,9.7,5.4C6.8,3,2,0.3,0.2-0.2v8.4   C6.7,9.8,16.6,19.9,23.6,25c2.6,1.9,5.7,3.2,8.9,3.6c0.9,0.1,1.5,0.1,2,0.2v-8.4C33.6,20.4,31.8,20.3,29.6,19.6z"
   id="path898" />
	<linearGradient
   id="SVGID_3_"
   gradientUnits="userSpaceOnUse"
   x1="0.206"
   y1="39.3118"
   x2="34.538"
   y2="39.3118">
		<stop
   offset="2.748116e-04"
   style="stop-color:#2E6A76"
   id="stop900" />
		<stop
   offset="1"
   style="stop-color:#68B2A0"
   id="stop902" />
	</linearGradient>
	<path
   class="st3"
   d="M29.6,44.6c-5-1.5-8.2-4.6-12.1-7.9c-3.4-2.8-6.3-5.2-7.8-6.4C6.8,28,2,25.3,0.2,24.8v8.4   C6.7,34.8,16.6,44.9,23.6,50c2.6,1.9,5.7,3.2,8.9,3.6c0.9,0.1,1.5,0.1,2,0.2v-8.4C33.6,45.4,31.8,45.3,29.6,44.6z"
   id="path905" />
	<linearGradient
   id="SVGID_4_"
   gradientUnits="userSpaceOnUse"
   x1="0.206"
   y1="51.8155"
   x2="34.538"
   y2="51.8155">
		<stop
   offset="2.748116e-04"
   style="stop-color:#2E6A76"
   id="stop907" />
		<stop
   offset="1"
   style="stop-color:#68B2A0"
   id="stop909" />
	</linearGradient>
	<path
   class="st4"
   d="M29.6,57.1c-5-1.5-8.2-4.6-12.1-7.9c-3.4-2.8-6.3-5.2-7.8-6.4c-2.9-2.3-7.7-5.1-9.5-5.5v8.4   c6.5,1.5,16.4,11.6,23.4,16.7c2.6,1.9,5.7,3.2,8.9,3.6c0.9,0.1,1.5,0.1,2,0.2v-8.4C33.6,57.9,31.8,57.8,29.6,57.1z"
   id="path912" />
</g>
<g
   id="Layer_2">
</g>
</svg>